<mxfile host="app.diagrams.net" modified="2024-05-21T17:41:24.502Z" agent="Mozilla/5.0 (Macintosh; Intel Mac OS X 10_15_7) AppleWebKit/605.1.15 (KHTML, like Gecko) Version/17.4.1 Safari/605.1.15" version="24.4.4" etag="fGWiPOg4mXs8fC3jGxys" type="github">
  <diagram name="Page-1" id="pf_izFdo7Bd6aEj84Cnw">
    <mxGraphModel>
      <root>
        <mxCell id="0" />
        <mxCell id="1" parent="0" />
      </root>
    </mxGraphModel>
  </diagram>
</mxfile>
